<svg width="1050" height="892" viewBox="0 0 1050 892" fill="none" xmlns="http://www.w3.org/2000/svg">
<path d="M898.752 181.986C908.237 174.644 918.209 167.734 928.077 160.899C944.215 149.731 960.898 138.187 974.415 125.225L974.998 125.835C961.447 138.826 944.704 150.401 928.543 161.585C901.843 180.094 874.175 199.226 858.234 226.091C846.58 245.73 841.237 268.106 836.058 289.725C829.494 317.214 822.71 345.629 802.882 368.503C793.417 379.425 781.961 388.044 770.874 396.383C765.115 400.796 759.046 405.245 753.373 410.099C742.843 419.039 735.74 428.703 728.212 438.928C723.559 445.257 718.755 451.791 713.058 458.189C696.78 476.375 673.571 480.446 651.11 484.256C629.711 487.945 607.596 491.716 592.159 508.165C578.212 522.955 574.99 543.161 571.878 562.691C568.123 586.252 564.259 610.615 541.452 625.474C536.206 628.902 531.357 631.633 527.077 634.087C513.364 641.911 503.443 647.512 494.36 666.845C489.761 676.725 486.52 687.314 483.367 697.568C479.508 710.094 475.508 723.037 469.024 734.735C451.495 766.352 421.408 772.822 389.56 779.667C370.55 783.761 350.902 787.977 334.203 798.07C322.942 804.875 313.264 814.369 303.89 823.565C295.722 831.572 287.272 839.861 277.76 846.418C251.106 864.771 222.947 872.887 196.493 878.93L196.302 878.125C222.682 872.103 250.756 864.009 277.282 845.733C286.746 839.207 295.163 830.959 303.309 822.968C312.704 813.744 322.465 804.203 333.771 797.355C350.588 787.198 370.307 782.949 389.38 778.861C421.044 772.049 450.945 765.588 468.302 734.328C474.732 722.712 478.723 709.808 482.575 697.32C485.751 687.051 489.036 676.407 493.685 666.534C502.88 646.962 512.879 641.277 526.736 633.399C531.007 630.984 535.843 628.242 541.064 624.816C563.484 610.19 567.354 585.989 571.091 562.605C574.226 542.947 577.46 522.614 591.589 507.666C607.238 491.105 629.469 487.246 650.999 483.504C673.304 479.637 696.444 475.624 712.47 457.642C718.146 451.284 722.927 444.766 727.57 438.463C735.167 428.179 742.254 418.479 752.865 409.481C758.578 404.659 764.574 400.119 770.4 395.736C781.454 387.438 792.862 378.837 802.308 367.967C821.991 345.26 828.762 316.946 835.299 289.549C840.496 267.865 845.845 245.438 857.556 225.642C867.651 208.586 882.456 194.626 898.752 181.986Z" stroke="url(#paint0_radial_637_2)" stroke-width="0.75" stroke-miterlimit="10"/>
<path d="M889.012 179.826C899.365 171.759 910.521 164.351 921.487 157.04C938.297 145.833 955.663 134.236 969.635 120.759L970.202 121.346C956.189 134.89 938.786 146.503 921.953 157.726C894.759 175.853 866.649 194.622 850.89 222.431C839.794 242.018 834.543 263.996 829.473 285.24C822.691 313.68 815.667 343.074 794.488 366.615C785.755 376.377 775.401 384.332 765.409 392.058C758.593 397.318 751.599 402.774 745.063 408.728C736.841 416.265 730.678 425.396 724.669 434.222C718.837 442.839 712.801 451.755 704.947 459.012C688.742 473.984 667.103 477.099 646.149 480.074C624.532 483.161 602.16 486.335 586.471 502.876C572.48 517.608 568.732 537.711 565.098 557.163C561.166 578.289 557.092 600.146 539.94 615.388C533.953 620.535 527.519 625.136 520.714 629.138C509.427 636.159 499.66 642.231 491.907 658.069C486.569 668.935 483.055 680.758 479.648 692.193C476.167 703.861 472.562 715.983 467.004 727.111C449.512 762.144 418.324 768.075 385.309 774.352C366.515 777.92 347.083 781.611 330.102 791.097C317.867 797.926 307.32 808.044 297.125 817.835C289.222 825.423 281.059 833.266 272.119 839.557C245.162 858.559 216.7 868.188 192.41 875.087L192.194 874.285C216.458 867.388 244.789 857.812 271.647 838.935C280.516 832.677 288.668 824.848 296.552 817.312C306.794 807.491 317.385 797.329 329.702 790.441C346.802 780.904 366.294 777.194 385.162 773.605C417.968 767.364 448.911 761.486 466.254 726.796C471.781 715.721 475.368 703.664 478.837 691.997C482.253 680.536 485.774 668.662 491.156 657.741C499.036 641.701 508.872 635.571 520.263 628.475C527.032 624.506 533.428 619.934 539.373 614.814C556.321 599.758 560.363 578.055 564.284 557.055C567.93 537.489 571.701 517.258 585.861 502.357C601.741 485.619 624.259 482.416 646.035 479.297C666.852 476.326 688.392 473.222 704.382 458.45C712.185 451.299 718.183 442.375 723.995 433.797C730.011 424.921 736.232 415.758 744.521 408.151C751.03 402.175 758.098 396.71 764.925 391.437C774.905 383.712 785.195 375.752 793.89 366.095C814.926 342.72 821.922 313.417 828.679 285.092C833.766 263.772 839.023 241.743 850.184 222.06C859.634 205.29 873.545 191.833 889.012 179.826Z" stroke="url(#paint1_radial_637_2)" stroke-width="0.75" stroke-miterlimit="10"/>
<path d="M877.749 179.243C889.902 169.818 903.292 161.58 916.522 153.472C934.084 142.705 952.217 131.572 966.665 117.991L967.236 118.602C952.732 132.24 934.55 143.391 916.967 154.186C889.234 171.209 860.576 188.801 844.772 216.765C833.401 236.91 828.197 259.509 823.144 281.351C816.672 309.43 809.97 338.462 790.098 362.268C781.799 372.206 771.877 380.55 762.274 388.607C755.666 394.157 748.842 399.894 742.598 406.103C735.341 413.317 729.736 422.172 724.323 430.729C718.407 440.045 712.297 449.633 704.109 457.029C687.178 472.233 664.565 474.282 642.698 476.271C620.148 478.312 596.828 480.417 580.341 497.211C565.75 512.062 561.534 532.569 557.457 552.422C553.243 572.942 548.873 594.181 533.098 609.529C527.651 614.656 521.839 619.383 515.708 623.671C504.786 631.69 495.355 638.626 488.223 655.082C483.592 665.779 480.552 677.248 477.61 688.367C474.299 700.868 470.874 713.795 465.164 725.693C447.786 761.94 415.395 766.43 381.1 771.149C361.667 773.838 341.555 776.616 324.223 785.654C311.124 792.494 299.947 803.448 289.124 814.112C281.927 821.194 274.482 828.517 266.592 834.463C246.004 849.996 222.727 862.153 191.131 873.854L190.842 873.073C222.365 861.393 245.575 849.306 266.079 833.807C273.949 827.901 281.369 820.581 288.544 813.527C299.402 802.846 310.621 791.812 323.839 784.921C341.3 775.806 361.474 773.021 381.043 770.316C415.101 765.612 447.284 761.158 464.472 725.333C470.138 713.491 473.556 700.614 476.857 688.139C479.811 677.006 482.859 665.499 487.509 654.75C494.73 638.083 504.241 631.089 515.206 623.001C521.311 618.715 527.094 613.987 532.508 608.857C548.102 593.68 552.438 572.582 556.64 552.177C560.744 532.233 564.983 511.598 579.744 496.59C596.466 479.656 619.924 477.449 642.61 475.391C664.342 473.418 686.792 471.375 703.545 456.366C711.659 449.092 717.732 439.508 723.601 430.223C729.049 421.636 734.675 412.754 742.011 405.456C748.278 399.231 755.113 393.481 761.732 387.918C771.312 379.875 781.164 371.577 789.456 361.69C809.194 338.024 815.87 309.096 822.328 281.119C827.353 259.254 832.61 236.561 844.044 216.309C852.398 201.568 864.308 189.678 877.749 179.243Z" stroke="url(#paint2_radial_637_2)" stroke-width="0.75" stroke-miterlimit="10"/>
<path d="M867.407 178.066C881.215 167.338 897.092 158.603 912.684 150.014C930.951 139.943 949.839 129.501 964.772 116.215L965.331 116.84C950.335 130.221 931.395 140.657 913.081 150.746C883.615 166.964 853.198 183.742 837.546 213.367C826.709 233.902 821.643 256.51 816.729 278.362C810.242 307.194 803.543 337.015 783.456 362.01C776.226 370.999 767.673 378.937 759.404 386.617C751.886 393.344 744.755 400.491 738.045 408.025C732.295 414.729 727.994 422.383 723.827 429.784C720.422 436.171 716.576 442.313 712.318 448.166C694.876 470.981 667.104 471.939 640.28 472.851C616.199 473.665 591.294 474.496 573.817 491.178C557.617 506.638 552.297 527.672 546.691 549.94C541.193 571.721 535.455 594.256 518.578 611.032C514.146 615.444 510.327 618.647 506.965 621.46C498.957 628.133 493.242 632.942 487.124 647.517C482.013 659.609 479.143 672.686 476.399 685.323C473.755 697.298 471.037 709.731 466.414 721.267C449.958 762.532 414.87 765.563 377.721 768.753C358.41 770.426 338.44 772.137 321.004 779.608C305.634 786.193 293.342 798.902 281.441 811.204C275.513 817.555 269.266 823.6 262.725 829.317C243.018 845.877 220.384 860.165 191.516 874.262L191.143 873.515C219.964 859.449 242.528 845.207 262.188 828.677C268.699 822.96 274.912 816.914 280.805 810.563C292.749 798.206 305.11 785.438 320.635 778.786C338.19 771.263 358.217 769.496 377.596 767.878C414.483 764.693 449.336 761.688 465.595 720.897C470.195 709.376 472.898 697.032 475.533 685.084C478.322 672.404 481.214 659.299 486.353 647.128C492.578 632.392 498.387 627.522 506.426 620.795C509.775 617.984 513.583 614.795 517.981 610.411C534.676 593.793 540.34 571.38 545.825 549.701C551.229 528.307 556.824 506.164 573.207 490.546C590.912 473.676 615.977 472.813 640.218 471.982C666.844 471.079 694.38 470.148 711.611 447.57C715.847 441.752 719.671 435.645 723.057 429.295C727.22 421.857 731.568 414.173 737.371 407.387C744.111 399.837 751.269 392.67 758.812 385.921C767.058 378.268 775.577 370.359 782.773 361.399C802.742 336.58 809.425 306.836 815.872 278.096C820.798 256.243 825.832 233.576 836.77 212.929C844.275 198.873 855.025 187.679 867.407 178.066Z" stroke="url(#paint3_radial_637_2)" stroke-width="0.75" stroke-miterlimit="10"/>
<path d="M858.23 175.904C873.375 164.16 891.381 155.321 909.032 146.66C928.012 137.347 947.647 127.747 963.144 114.685L963.679 115.313C948.125 128.419 928.437 138.113 909.405 147.407C878.196 162.721 845.918 178.546 830.399 210.11C820.587 230.09 816.081 252.221 811.728 273.608C806.633 298.6 801.372 324.449 787.625 347.044C779.713 360.056 769.433 371.084 759.489 381.76C754.389 387.238 749.122 392.898 744.195 398.795C738.154 406.021 733.272 415.068 728.534 423.724C722.831 434.243 716.926 445.086 708.97 452.868C690.178 471.202 663.565 470.563 637.851 470.009C612.736 469.437 586.791 468.834 568.276 485.972C552.02 501.05 546.742 523.006 541.633 544.241C536.767 564.535 531.728 585.512 517.215 601.054C515.129 603.296 513.126 605.403 511.215 607.424C496.516 622.875 486.812 633.123 480.64 657.348C478.613 665.282 477.112 673.556 475.655 681.55C472.994 696.232 470.227 711.426 464.144 725.32C446.9 764.721 411.133 765.75 373.172 766.866C354.446 767.408 335.01 767.98 318.159 773.657C300.067 779.762 286.925 794.147 274.231 808.055C269.297 813.451 264.209 819.041 258.925 824.001C239.883 841.9 218.703 858.065 192.271 874.852L191.828 874.151C218.211 857.369 239.359 841.259 258.354 823.39C263.615 818.444 268.693 812.881 273.616 807.499C286.378 793.52 299.585 779.053 317.894 772.873C334.857 767.184 354.327 766.582 373.152 766.03C410.79 764.938 446.349 763.957 463.379 724.982C469.423 711.18 472.184 696.049 474.837 681.405C476.304 673.385 477.803 665.098 479.84 657.138C486.063 632.708 495.825 622.415 510.61 606.841C512.523 604.833 514.525 602.726 516.612 600.484C530.964 585.073 535.981 564.236 540.834 544.044C545.918 522.699 551.269 500.609 567.72 485.372C568.851 484.304 569.99 483.31 571.26 482.364C589.673 468.08 614.136 468.639 637.845 469.183C663.386 469.757 689.805 470.343 708.365 452.285C716.258 444.611 722.102 433.787 727.788 423.333C732.529 414.589 737.437 405.551 743.532 398.256C748.472 392.358 753.75 386.685 758.861 381.193C768.772 370.558 779.029 359.545 786.887 346.614C800.61 324.135 805.805 298.368 810.882 273.442C815.253 251.99 819.77 229.845 829.628 209.722C836.478 195.853 846.503 185.005 858.23 175.904Z" stroke="url(#paint4_radial_637_2)" stroke-width="0.75" stroke-miterlimit="10"/>
<path d="M849.969 172.536C866.084 160.068 885.673 151.487 904.917 143.071C924.627 134.451 944.996 125.569 960.998 112.662L961.51 113.305L959.925 114.563C944.1 126.835 924.367 135.47 905.255 143.834C873.161 157.871 839.957 172.386 824.35 204.499C814.275 225.247 809.828 248.224 805.555 270.428C800.832 294.951 795.924 320.372 783.394 342.879C776.127 356.056 766.46 367.515 757.152 378.607C752.244 384.451 747.17 390.49 742.471 396.736C737.326 403.585 733.047 412.313 728.931 420.823C723.275 432.201 717.532 444.127 709.285 451.893C689.7 470.405 661.959 468.554 635.119 466.688C608.852 464.907 581.725 463.061 562.265 480.357C544.935 495.795 538.135 520.003 531.544 543.411C526.41 561.681 521.097 580.573 510.831 595.356C507.312 600.416 504.022 604.748 500.854 608.929C490.491 622.634 482.35 633.418 477.785 655.143C476.156 662.843 475.047 670.81 473.923 678.541C471.686 694.089 469.37 710.159 463.314 724.839C446.535 765.577 407.056 764.912 368.855 764.252C349.531 763.947 329.55 763.58 312.671 768.57C293.14 774.364 279.786 789.85 266.874 804.822C262.681 809.683 258.331 814.712 253.869 819.304C234.49 839.033 213.915 857.551 192.26 874.753L191.749 874.11C213.371 856.922 233.919 838.423 253.277 818.72C257.765 814.138 262.054 809.128 266.235 804.268C279.237 789.211 292.677 773.703 312.442 767.77C329.405 762.745 349.484 763.088 368.873 763.423C387.887 763.763 407.544 764.03 424.065 759.305C442.518 753.948 455.1 742.57 462.527 724.528C468.539 709.903 470.861 693.882 473.09 678.373C474.201 670.644 475.356 662.634 476.959 654.936C481.505 633.039 489.749 622.168 500.166 608.394C503.335 604.213 506.612 599.882 510.121 594.836C520.326 580.184 525.61 561.359 530.726 543.154C537.341 519.63 544.187 495.279 561.69 479.709C581.381 462.123 608.75 464.017 635.159 465.832C648.514 466.741 662.335 467.672 674.916 466.077C688.991 464.286 700.052 459.457 708.698 451.246C716.794 443.585 722.551 431.782 728.129 420.376C732.272 411.888 736.573 403.132 741.759 396.204C746.469 389.944 751.554 383.891 756.473 378.033C765.745 366.957 775.356 355.555 782.624 342.49C795.099 320.053 799.97 294.749 804.712 270.286C809.016 248.028 813.458 225.002 823.596 204.146C829.951 191.098 839.114 180.937 849.969 172.536Z" stroke="url(#paint5_radial_637_2)" stroke-width="0.75" stroke-miterlimit="10"/>
<path d="M842.663 168.108C859.166 155.307 879.682 147.059 899.776 139.059C919.869 131.06 940.499 122.711 956.802 110.021L957.584 109.406L958.097 110.061L957.315 110.676C940.88 123.419 920.147 131.742 900.086 139.801C867.628 152.84 834.068 166.318 818.293 198.826C807.944 220.132 803.571 243.763 799.334 266.615C794.858 290.772 790.237 315.747 778.546 338.145C771.633 351.457 762.446 363.175 753.568 374.519C748.791 380.636 743.85 386.96 739.293 393.466C734.735 399.972 730.731 408.807 726.965 417.202C721.57 429.214 715.97 441.637 707.822 449.379C687.928 468.265 659.235 465.42 631.495 462.692C604.348 460.009 576.259 457.183 556.217 474.658C538.072 490.414 530.522 515.96 523.215 540.665C518.15 557.774 512.926 575.478 504.211 589.472C501.469 593.879 498.902 597.842 496.354 601.639C486.129 617.219 478.049 629.524 474.087 652.044C472.796 659.406 471.89 667.062 471.004 674.464C469.096 690.701 467.073 707.477 460.928 722.806C444.224 764.424 403.552 762.418 364.203 760.473C344.403 759.496 323.897 758.487 306.892 763.141C286.486 768.721 272.769 784.987 259.505 800.714C255.785 805.108 251.945 809.666 248.052 813.866C230.48 832.788 211.583 852.062 190.269 872.775L189.687 872.178C210.99 851.478 229.889 832.217 247.436 813.298C251.317 809.098 255.209 804.56 258.867 800.173C272.221 784.348 286.026 767.985 306.663 762.341C323.79 757.66 344.333 758.665 364.211 759.658C403.256 761.574 443.639 763.577 460.171 722.429C466.267 707.218 468.257 690.484 470.185 674.307C471.069 666.892 471.974 659.224 473.275 651.836C477.267 629.15 485.377 616.779 495.655 601.117C498.175 597.286 500.767 593.321 503.513 588.95C512.162 575.039 517.38 557.399 522.415 540.343C529.758 515.521 537.357 489.856 555.671 473.931C576.052 456.242 604.254 459.068 631.578 461.768C659.13 464.492 687.618 467.298 707.255 448.692C715.302 441.05 720.848 428.707 726.166 416.779C729.952 408.345 733.869 399.62 738.578 392.909C743.134 386.39 748.086 380.053 752.875 373.934C761.73 362.605 770.892 350.89 777.78 337.681C789.407 315.39 794.022 290.466 798.468 266.376C802.711 243.473 807.091 219.79 817.491 198.378C823.398 186.458 832.02 176.089 842.663 168.108Z" stroke="url(#paint6_radial_637_2)" stroke-width="0.75" stroke-miterlimit="10"/>
<path d="M835.928 162.75C852.35 150.008 872.725 142.277 892.677 134.582C913.609 126.575 935.264 118.323 952.199 104.471L952.735 105.111C935.707 119.024 913.934 127.34 892.967 135.363C860.993 147.596 827.926 160.229 812.022 193.039C801.657 214.422 797.317 238.125 793.114 261.049C788.706 285.148 784.141 310.066 772.574 332.45C765.723 345.755 756.646 357.56 747.854 369.007C743.097 375.185 738.2 381.567 733.677 388.156C729.375 394.37 725.828 402.489 722.023 411.089C716.457 423.696 710.701 436.726 702.408 443.971C681.903 461.887 653.627 459.07 626.274 456.335C598.921 453.6 570.38 450.763 550.082 469.182C532.307 485.334 524.024 511.365 516.005 536.526C510.766 552.992 505.351 570.003 497.351 583.564C495.243 587.048 493.319 590.286 491.401 593.46C480.929 610.722 472.668 624.401 468.755 647.567C467.554 654.617 466.635 661.949 465.839 669.041C463.886 685.546 461.864 702.547 455.564 718.056C438.586 759.794 397.952 757.344 358.652 754.955C338.474 753.746 317.663 752.471 300.371 757.246C279.969 762.863 266.014 779.457 252.51 795.498C248.939 799.662 245.274 804.1 241.585 808.115C222.92 828.439 203.911 848.602 185.1 867.978L184.509 867.407C203.302 847.982 222.299 827.821 240.962 807.484C244.638 803.471 248.315 799.132 251.866 794.895C265.446 778.757 279.502 762.064 300.146 756.369C317.573 751.567 338.483 752.831 358.748 754.043C397.746 756.416 438.079 758.862 454.806 717.666C461.068 702.262 463.08 685.287 465.035 668.907C465.879 661.797 466.747 654.459 467.957 647.382C471.923 624.022 480.233 610.326 490.758 592.982C492.667 589.834 494.638 586.579 496.697 583.1C504.649 569.67 509.81 553.401 515.27 536.234C523.315 510.969 531.637 484.834 549.582 468.525C570.073 449.834 598.707 452.711 626.376 455.472C653.55 458.176 681.641 461.015 701.881 443.304C710.037 436.176 715.754 423.238 721.28 410.723C725.093 402.084 728.698 393.921 733.018 387.643C737.542 381.065 742.462 374.669 747.207 368.492C755.929 357.091 765.03 345.283 771.867 332.067C783.371 309.79 787.93 284.935 792.327 260.85C796.519 237.828 800.87 214.111 811.298 192.621C817.057 180.873 825.493 170.642 835.928 162.75Z" stroke="url(#paint7_radial_637_2)" stroke-width="0.75" stroke-miterlimit="10"/>
<path d="M827.272 156.909C844.143 143.816 865.493 136.951 886.372 130.24C908.398 123.16 931.163 115.846 948.919 101.4L949.444 102.054C931.551 116.616 908.723 123.925 886.625 131.038C852.794 141.917 820.824 152.195 804.823 186.019C795.068 206.606 790.758 229.253 786.662 251.137C781.966 275.895 777.165 301.492 764.413 324.349C757.081 337.508 747.545 349.128 738.317 360.374C733.49 366.271 728.485 372.365 723.85 378.629C719.215 384.893 715.399 392.404 711.316 400.547C705.197 412.804 698.752 425.5 689.813 432.792L688.791 433.61C669.584 448.51 643.694 447.513 618.641 446.608C590.085 445.514 563.113 444.477 544.95 464.806C530.513 481.017 521.911 504.466 513.66 527.149C507.186 544.87 500.505 563.19 491.044 577.895L488.69 581.532C475.807 601.486 466.489 615.899 461.302 640.738C459.874 647.563 458.716 654.659 457.605 661.511C455.026 677.474 452.345 693.961 445.918 709.022C428.445 749.926 388.992 748.069 350.824 746.152C330.458 745.165 309.387 744.132 291.663 749.52C271.697 755.551 258.854 772.557 246.42 788.977C242.872 793.677 239.195 798.567 235.487 802.96C217.886 823.911 199.02 843.765 178.993 862.411L178.423 861.8C198.428 843.178 217.276 823.351 234.863 802.43C238.593 798.01 242.262 793.158 245.799 788.472C258.308 771.942 271.229 754.853 291.459 748.716C309.316 743.289 330.457 744.276 350.904 745.317C390.516 747.256 427.934 749.07 445.192 708.691C451.58 693.735 454.243 677.3 456.827 661.387C457.936 654.522 459.095 647.427 460.518 640.564C465.753 615.594 475.089 601.117 488.024 581.069L490.376 577.42C499.785 562.809 506.458 544.527 512.911 526.846C521.217 504.094 529.797 480.56 544.371 464.233C562.754 443.628 591.208 444.709 618.669 445.753C643.573 446.675 669.315 447.689 688.281 432.979L689.292 432.175C698.092 424.986 704.436 412.39 710.576 400.205C714.654 392.026 718.58 384.264 723.096 378.164C727.612 372.063 732.747 365.792 737.597 359.879C746.792 348.675 756.292 337.072 763.569 323.981C776.248 301.245 781.061 275.647 785.722 251.019C789.874 229.078 794.154 206.384 803.947 185.692C809.295 174.363 817.296 164.489 827.272 156.909Z" stroke="url(#paint8_radial_637_2)" stroke-width="0.75" stroke-miterlimit="10"/>
<path d="M816.926 150.31C834.592 136.612 857.811 131.313 881.923 125.712C905.306 120.319 929.521 114.743 948.215 100.728L948.717 101.398C929.847 115.52 905.585 121.114 882.102 126.518C846.428 134.738 812.742 142.494 796.375 177.612C787.315 197.043 783.219 218.263 779.256 238.792C774.303 264.481 769.162 291.043 754.26 314.283C746.028 327.119 735.622 338.248 725.563 349.013C720.483 354.451 715.224 360.072 710.296 365.856C704.95 372.139 700.14 380.164 695.485 387.908C688.801 399.053 681.888 410.611 672.935 417.893C672.558 418.212 672.169 418.532 671.789 418.825C654.831 432.029 631.76 433.566 609.426 435.095C581.75 436.994 555.581 438.721 540.439 460.836C533.988 470.175 530.246 482.3 526.582 494.014C524.305 501.963 521.502 509.751 518.19 517.327C508.29 538.406 495.641 556.78 484.557 571.97C469.594 592.462 459.279 607.802 452.49 632.435C450.721 638.899 449.145 645.629 447.631 652.126C444.108 667.282 440.475 683.001 433.627 697.22C414.777 736.49 379.125 735.553 341.315 734.585C320.787 734.042 299.557 733.491 281.125 739.911C261.704 746.669 250.16 764.303 239.001 781.355C235.586 786.566 232.066 791.952 228.425 796.825C212.129 818.717 193.503 838.775 172.875 856.645L172.328 856.018C192.912 838.184 211.501 818.169 227.767 796.324C231.385 791.466 234.908 786.105 238.311 780.908C249.545 763.734 261.164 745.991 280.848 739.128C299.426 732.667 320.73 733.209 341.332 733.744C378.842 734.721 414.256 735.648 432.873 696.867C439.674 682.679 443.318 667.046 446.833 651.942C448.334 645.433 449.899 638.717 451.688 632.213C458.513 607.451 468.876 592.092 483.888 571.483C494.937 556.322 507.566 537.988 517.436 516.974C520.735 509.433 523.526 501.68 525.79 493.766C529.459 481.988 533.269 469.806 539.748 460.376C555.134 437.983 581.481 436.173 609.419 434.257C631.614 432.731 654.558 431.171 671.313 418.166C671.705 417.871 672.084 417.564 672.461 417.246C681.29 409.978 688.166 398.536 694.82 387.458C699.483 379.675 704.29 371.625 709.707 365.297C714.644 359.487 719.915 353.864 725.006 348.413C735.055 337.674 745.415 326.575 753.634 313.84C768.439 290.749 773.565 264.264 778.514 238.651C782.433 218.077 786.586 196.8 795.686 177.277C800.473 166.698 807.763 157.442 816.926 150.31Z" stroke="url(#paint9_radial_637_2)" stroke-width="0.75" stroke-miterlimit="10"/>
<path d="M806.032 143.396C825.481 128.306 852.36 124.682 878.585 121.144C903.49 117.782 929.233 114.3 948.968 101.281L949.424 101.981C929.624 115.095 903.719 118.583 878.765 121.951C840.427 127.13 804.21 132.018 787.387 168.515C778.99 186.731 775.115 206.598 771.365 225.8C766.158 252.445 760.78 280.011 743.176 303.17C733.81 315.509 722.325 325.96 711.226 336.066C705.802 341.005 700.193 346.09 694.885 351.391C688.054 358.169 682.062 366.479 676.224 374.496C669.37 384.044 662.278 393.806 653.792 401.123C639.125 413.765 618.896 418.047 599.339 422.178C572.984 427.759 548.082 433.025 536.198 457.236C531.909 465.991 529.316 475.554 526.823 484.906C524.015 495.334 521.112 506.135 515.766 516.05C507.34 531.701 496.455 544.451 484.891 557.954C482.593 560.646 480.271 563.353 477.977 566.094C459.448 588.156 450.478 611.572 440.963 636.353C434.974 652.064 428.76 668.215 419.902 684.141C399.286 721.208 366.012 721.364 330.797 721.517C310.179 721.61 288.86 721.708 269.584 729.514C250.752 737.157 240.589 755.586 230.747 773.427C227.444 779.402 224.329 785.042 220.898 790.33C206.199 813.282 187.945 833.751 166.819 850.972L166.296 850.33C187.35 833.155 205.547 812.748 220.207 789.871C223.616 784.61 226.733 778.982 230.012 773.023C239.928 755.06 250.175 736.484 269.271 728.748C288.703 720.874 310.097 720.78 330.789 720.678C365.767 720.528 398.803 720.374 419.167 683.736C427.993 667.864 434.194 651.702 440.191 636.065C449.72 611.182 458.722 587.725 477.341 565.565C479.644 562.798 481.955 560.105 484.266 557.412C495.772 543.953 506.647 531.229 515.032 515.657C520.337 505.822 523.222 495.073 526.022 484.684C528.54 475.342 531.136 465.69 535.467 456.868C547.524 432.299 572.62 426.986 599.184 421.369C618.632 417.263 638.701 413.012 653.256 400.483C661.665 393.263 668.728 383.465 675.567 374.007C681.388 365.954 687.404 357.629 694.279 350.797C699.601 345.506 705.219 340.395 710.643 335.456C721.718 325.365 733.157 314.945 742.493 302.672C759.914 279.671 765.328 252.201 770.514 225.584C774.275 206.368 778.166 186.424 786.601 168.104C790.972 158.41 797.642 149.929 806.032 143.396Z" stroke="url(#paint10_radial_637_2)" stroke-width="0.75" stroke-miterlimit="10"/>
<path d="M795.484 135.792C816.192 119.657 846.243 118.151 875.544 116.656C901.929 115.292 929.196 113.866 949.628 102.02L950.048 102.736C929.44 114.69 902.061 116.117 875.588 117.478C834.33 119.671 795.359 121.603 778.156 159.384C770.317 176.559 766.652 195.3 763.105 213.427C757.72 240.931 752.153 269.37 731.799 292.016C721.261 303.749 708.724 313.431 696.631 322.836C690.818 327.331 684.822 331.984 679.121 336.804C669.976 344.483 662.34 353.432 654.911 362.106C648.505 369.876 641.621 377.239 634.3 384.154C621.588 395.709 605.02 402.005 588.957 408.105C564.009 417.584 540.454 426.528 531.853 453.622C529.688 460.851 527.911 468.19 526.529 475.609C523.803 489.07 521.218 501.789 513.203 514.776C505.188 527.763 494.53 537.781 484.059 547.678C479.796 551.708 475.387 555.88 471.218 560.188C451.615 580.418 440.737 603.125 429.232 627.155C422.3 641.622 415.134 656.566 405.896 670.919C383.655 705.478 352.656 706.691 319.837 707.985C299.188 708.796 277.83 709.65 257.818 719.018C239.529 727.576 230.679 746.87 222.12 765.53C219.1 772.011 216.352 778.123 213.176 783.782C198.757 809.497 183.053 827.881 160.669 845.247L160.156 844.591C182.448 827.299 198.082 808.96 212.454 783.376C215.57 777.748 218.407 771.639 221.367 765.189C229.985 746.385 238.918 726.944 257.457 718.27C277.673 708.816 299.069 707.97 319.794 707.164C352.399 705.868 383.186 704.667 405.194 670.473C414.411 656.159 421.554 641.231 428.477 626.79C440.011 602.694 450.923 579.946 470.625 559.604C474.806 555.295 479.215 551.111 483.478 547.081C493.902 537.214 504.667 527.033 512.49 514.344C520.314 501.654 523.011 488.822 525.711 475.464C527.086 468.013 528.868 460.644 531.05 453.388C539.771 425.917 563.517 416.888 588.656 407.337C604.623 401.261 621.141 394.971 633.73 383.543C641.023 376.638 647.883 369.29 654.27 361.54C661.721 352.838 669.428 343.857 678.582 336.139C684.295 331.317 690.29 326.652 696.128 322.154C708.174 312.779 720.683 303.076 731.181 291.435C751.381 268.969 756.923 240.646 762.283 213.245C765.836 195.067 769.52 176.273 777.399 159.006C781.419 149.894 787.632 141.919 795.484 135.792Z" stroke="url(#paint11_radial_637_2)" stroke-width="0.75" stroke-miterlimit="10"/>
<path d="M785.98 128.22C807.627 111.426 840.194 111.776 871.952 112.168C899.641 112.472 928.271 112.781 949.296 101.745L949.68 102.478C928.484 113.659 899.737 113.312 871.972 113.005C830.212 112.549 787.023 112.082 769.573 150.892C762.208 167.274 758.711 185.182 755.334 202.488C749.776 230.676 744.16 259.784 721.412 281.763C709.181 293.577 694.924 303.229 681.084 312.582C675.783 316.18 670.294 319.898 665.014 323.681C652.738 332.468 643.255 342.241 633.234 352.575C628.009 357.942 622.617 363.503 616.793 368.888C605.715 379.18 592.49 386.448 579.712 393.464C555.618 406.703 532.868 419.201 527.36 449.913C526.289 455.909 525.616 461.66 524.961 467.233C523.099 483.113 521.34 498.131 510.627 513.491C502.746 524.797 491.805 533.094 481.207 541.114C475.652 545.342 469.899 549.704 464.654 554.46C444.092 573.084 430.805 596.427 417.954 618.97C410.365 632.284 402.515 646.066 393.164 658.98C369.882 691.114 340.579 693.249 309.548 695.505C288.842 697.023 267.439 698.584 246.965 709.394C229.148 718.8 221.515 738.883 214.02 758.311C211.376 765.225 208.875 771.747 205.961 777.728C192.699 804.914 177.799 822.881 154.503 839.712L154.028 838.951C177.17 822.201 192.031 804.326 205.22 777.273C208.125 771.319 210.616 764.823 213.262 757.921C220.754 738.356 228.518 718.108 246.583 708.574C267.21 697.67 288.713 696.111 309.507 694.595C340.337 692.337 369.461 690.273 392.496 658.392C401.827 645.518 409.666 631.763 417.245 618.462C430.128 595.866 443.448 572.493 464.109 553.745C469.365 548.976 475.141 544.598 480.722 540.368C491.235 532.383 502.122 524.154 509.937 512.931C520.531 497.734 522.278 482.831 524.126 467.052C524.743 461.471 525.464 455.702 526.532 449.682C532.108 418.574 555.035 405.98 579.305 392.646C592.035 385.648 605.24 378.42 616.226 368.201C622.026 362.819 627.419 357.27 632.632 351.905C642.724 341.537 652.229 331.737 664.562 322.906C669.843 319.123 675.333 315.417 680.645 311.806C694.4 302.474 708.621 292.839 720.796 281.082C743.363 259.274 748.761 231.555 754.479 202.247C757.876 184.889 761.381 166.942 768.792 150.517C772.578 141.772 778.486 134.108 785.98 128.22Z" stroke="url(#paint12_radial_637_2)" stroke-width="0.75" stroke-miterlimit="10"/>
<path d="M778.143 120.558C800.007 103.577 833.814 105.351 866.702 107.092C895.493 108.598 925.256 110.169 946.593 99.122L946.977 99.8548C925.446 111.074 895.567 109.466 866.657 107.911C824.446 105.691 780.797 103.384 763.074 140.998C754.542 159.129 750.61 177.613 746.805 195.456C740.059 227.173 733.677 257.145 702.927 281L702.512 281.323C690.373 290.646 678.009 299.431 666.064 307.93C646.677 321.698 626.668 335.938 607.859 352.358C598.835 360.224 588.26 367.228 577.937 374.027C551.911 391.194 525.002 408.962 521.83 442.264C521.201 449.061 521.018 455.37 520.849 461.476C520.284 481.267 519.8 498.356 503.169 516.633C495.466 525.1 485.486 531.171 475.841 536.991C468.239 541.614 460.362 546.356 453.695 552.263C435.115 568.72 421.827 590.06 408.995 610.684C401.573 622.501 394.044 634.694 385.53 645.834C368.639 667.985 354.715 680.229 325.481 685.725C316.259 687.451 306.237 688.091 295.629 688.761C274.329 690.121 252.306 691.514 235.616 702.232C219.625 712.495 213.04 732.759 206.677 752.333C204.218 759.89 201.9 767.031 199.056 773.404C186.841 801.097 172.625 818.034 148.326 833.864L147.883 833.163C172.03 817.425 186.169 800.585 198.303 773.064C201.09 766.734 203.411 759.619 205.858 752.076C212.256 732.36 218.83 711.997 235.173 701.531C252.037 690.693 274.173 689.3 295.573 687.94C306.155 687.261 316.152 686.624 325.288 684.907C354.252 679.467 368.061 667.312 384.822 645.338C393.302 634.227 400.894 622.04 408.232 610.258C421.119 589.565 434.428 568.185 453.098 551.642C459.834 545.678 467.731 540.896 475.372 536.281C485.049 530.519 494.981 524.579 502.618 516.194C519.025 498.144 519.512 481.192 520.062 461.603C520.241 455.483 520.422 449.15 521.06 442.326C524.226 408.637 551.311 390.761 577.498 373.475C587.75 366.709 598.364 359.714 607.329 351.88C626.147 335.434 646.202 321.151 665.589 307.396C677.549 298.907 689.925 290.121 702.027 280.802L702.431 280.493C732.95 256.815 739.287 226.998 746.013 195.433C749.817 177.465 753.761 158.98 762.334 140.77C765.905 132.861 771.327 125.928 778.143 120.558Z" stroke="url(#paint13_radial_637_2)" stroke-width="0.75" stroke-miterlimit="10"/>
<path d="M772.435 114.532C794.306 97.6126 827.943 99.4436 860.771 101.091C889.411 102.59 919.046 104.137 940.28 93.2901L940.652 94.0243C919.224 105.044 889.487 103.483 860.735 101.985C818.286 99.7667 774.402 97.4867 757.086 135.818C749.002 153.698 745.218 171.726 741.554 189.152C734.917 220.732 728.635 250.593 697.828 274.504L696.468 275.535C684.8 284.379 672.934 292.481 661.47 300.362C640.318 314.907 620.327 328.644 601.026 346.247C591.596 354.836 580.474 362.202 569.698 369.316C543.444 386.684 518.645 403.073 515.337 436.277C514.671 442.966 514.432 449.231 514.208 455.293C513.457 475.206 512.799 492.415 496.909 510.82C489.158 519.743 479.122 526.096 469.365 532.255C462.121 536.837 454.64 541.534 448.215 547.251C427.918 565.344 412.145 588.845 396.897 611.573C390.846 620.579 384.58 629.897 378.209 638.626C360.76 662.481 348.103 674.08 319.254 679.758C310.018 681.586 300.019 682.324 289.442 683.152C268.328 684.717 246.456 686.331 229.838 697.029C213.886 707.299 207.618 727.377 201.539 746.806C199.365 754.27 196.785 761.609 193.809 768.791C181.739 796.104 167.294 812.792 142.286 828.34L141.842 827.626C166.7 812.195 181.056 795.606 193.044 768.452C196.011 761.301 198.582 753.992 200.746 746.558C206.872 726.986 213.21 706.75 229.383 696.329C246.187 685.51 268.147 683.899 289.385 682.32C299.943 681.543 309.917 680.808 319.06 678.941C347.627 673.308 360.181 661.796 377.501 638.13C383.861 629.415 390.115 620.099 396.154 611.094C411.446 588.324 427.203 564.786 447.68 546.623C454.14 540.877 461.663 536.113 468.931 531.528C478.631 525.413 488.669 519.085 496.293 510.251C511.977 492.02 512.617 474.976 513.383 455.199C513.606 449.124 513.843 442.847 514.519 436.132C517.87 402.535 543.983 385.258 569.245 368.528C579.985 361.431 591.086 354.093 600.444 345.537C619.73 327.91 639.792 314.14 660.98 299.579C672.432 291.699 684.292 283.548 695.944 274.781L697.292 273.751C727.869 250.029 734.105 220.311 740.709 188.885C744.38 171.408 748.172 153.341 756.296 135.37C759.864 127.193 765.41 120.032 772.435 114.532Z" stroke="url(#paint14_radial_637_2)" stroke-width="0.75" stroke-miterlimit="10"/>
<path d="M768.392 109.055C789.58 92.6273 821.953 93.0367 853.524 93.4372C880.931 93.7858 909.277 94.1402 929.777 83.4392L930.161 84.172C909.486 94.9806 881.025 94.6143 853.501 94.2288C811.659 93.7079 768.384 93.1496 752.113 132.076C744.802 149.592 741.393 167.177 738.096 184.198C731.923 216.113 726.068 246.313 695.284 270.197C694.477 270.815 693.671 271.433 692.826 272.042C681.892 280.076 670.947 287.459 660.326 294.606C638.228 309.534 617.351 323.635 597.212 342.674C586.864 352.545 573.719 360.304 560.96 367.819C536.395 382.302 510.999 397.305 505.455 427.044C504.001 434.838 503.204 442.255 502.43 449.42C500.548 466.994 498.812 483.649 487.591 501.147C479.731 513.515 468.917 523.15 458.467 532.469C454.113 536.359 449.61 540.366 445.362 544.532C421.706 567.767 397.542 596.232 371.515 631.535L370.617 632.777C354.204 655.062 344.287 668.503 315.091 675.322C305.685 677.52 295.559 678.573 284.851 679.68C264.549 681.779 243.555 683.956 227.362 694.53C212.123 704.469 205.518 723.458 199.164 741.791C196.6 749.755 193.53 757.547 189.972 765.12C177.29 790.361 161.699 806.991 136.164 822.536L135.732 821.821C161.131 806.404 176.629 789.835 189.229 764.753C192.767 757.211 195.82 749.45 198.369 741.518C204.782 723.04 211.414 703.961 226.906 693.83C243.231 683.204 264.368 680.96 284.769 678.85C295.452 677.746 305.541 676.698 314.912 674.516C343.802 667.769 353.641 654.412 369.946 632.277L370.846 631.048C396.881 595.706 421.079 567.212 444.844 543.94C449.095 539.698 453.615 535.727 457.971 531.849C468.386 522.56 479.153 512.954 486.988 500.69C498.06 483.309 499.825 466.801 501.705 449.327C502.477 442.138 503.284 434.706 504.736 426.888C510.346 396.741 535.909 381.668 560.627 367.093C573.349 359.582 586.507 351.834 596.797 342.107C616.981 323.026 637.894 308.908 660.027 293.963C670.587 286.824 681.52 279.442 692.462 271.483C725.108 247.563 731.092 216.734 737.402 184.152C740.695 167.094 744.11 149.458 751.487 131.859C755.02 122.904 760.85 115.039 768.392 109.055Z" stroke="url(#paint15_radial_637_2)" stroke-width="0.75" stroke-miterlimit="10"/>
<path d="M765.653 103.267C785.632 87.7662 815.193 86.354 844.036 84.9108C869.932 83.6529 896.687 82.3473 916.453 71.0286L916.861 71.7586C896.868 83.1659 870.064 84.4771 844.081 85.7448C824.008 86.778 803.251 87.7388 786.092 93.4626C767.006 99.8569 754.48 111.616 747.801 129.411C741.384 146.524 738.524 163.758 735.762 180.418C730.138 214.187 724.827 246.079 690.879 270.235C680.53 277.576 670.343 284.359 660.483 290.93C637.582 306.176 615.951 320.575 594.709 340.266C583.376 350.737 567.534 358.127 552.217 365.282C526.966 377.05 500.861 389.228 493.183 415.628C490.052 426.406 488.657 437.587 487.308 448.399C485.535 462.528 483.719 477.152 477.997 491.255C470.724 509.217 460.032 525.865 444.366 543.593C433.494 555.916 421.351 567.406 409.604 578.526C394.308 593.018 378.479 607.997 365.311 624.902C362.416 628.626 359.871 632.122 357.351 635.515C344.986 652.316 336.059 664.442 311.653 671.53C302.183 674.274 292.096 675.773 281.307 677.378C262.082 680.243 242.203 683.196 226.819 693.84C212.771 703.556 205.783 720.947 199.029 737.748C195.399 746.791 191.975 755.322 187.501 762.783C173.754 785.816 157.099 801.465 130.037 816.796L129.63 816.078C156.549 800.814 173.113 785.25 186.789 762.363C191.219 754.958 194.633 746.44 198.254 737.436C205.096 720.524 212.1 703.056 226.341 693.156C241.861 682.395 261.839 679.432 281.163 676.555C291.867 674.973 301.979 673.471 311.387 670.734C335.539 663.725 344.4 651.682 356.656 635.018C359.151 631.628 361.738 628.177 364.627 624.391C377.838 607.431 393.744 592.469 409.009 577.917C420.732 566.813 432.865 555.336 443.727 543.04C459.325 525.37 469.964 508.815 477.198 490.945C482.881 476.946 484.691 462.374 486.457 448.295C487.816 437.457 489.206 426.239 492.355 415.397C500.142 388.634 526.422 376.448 551.842 364.523C567.101 357.4 582.885 350.054 594.102 339.671C615.414 319.935 637.082 305.519 660.004 290.246C669.854 283.689 680.053 276.903 690.389 269.564C724.13 245.682 729.389 213.884 734.971 180.295C737.754 163.596 740.622 146.323 747.068 129.131C750.678 118.918 757.125 109.946 765.653 103.267Z" stroke="url(#paint16_radial_637_2)" stroke-width="0.75" stroke-miterlimit="10"/>
<path d="M763.709 96.6379C781.744 82.6605 807.199 79.3988 833.629 76.0134C857.824 72.9077 882.847 69.6952 901.814 57.4153L902.269 58.1149C883.139 70.5011 858.03 73.7234 833.734 76.8281C794.404 81.8702 757.272 86.637 743.91 127.136C738.386 143.847 736.118 160.776 733.908 177.122C729.228 212.024 724.806 245.017 689.669 269.07C679.693 275.647 669.384 281.704 658.782 287.216C648.791 292.638 638.455 298.223 628.897 304.697C620.088 310.711 612.882 318.044 606.016 325.176C601.779 329.541 597.398 334.073 592.629 338.286C580.193 349.296 561.313 355.629 543.064 361.678C516.626 370.5 489.284 379.625 479.743 403.194C472.16 421.955 470.22 442.316 468.353 461.993C465.713 489.848 462.969 518.655 444.165 543.479C432.109 559.368 415.854 571.377 400.177 582.969C385.807 593.598 370.938 604.585 359.313 618.534C354.518 624.277 350.728 629.706 347.055 634.959C337.44 648.742 329.138 660.647 308.538 668.153C299.083 671.571 288.494 673.729 278.249 675.822C260.207 679.505 241.528 683.323 227.206 694.16L226.618 694.602C214.362 704.114 207.242 719.353 200.352 734.191C195.997 743.567 191.489 753.261 185.734 761.231C170.916 781.794 153.025 796.268 123.981 811.236L123.597 810.503C152.524 795.611 170.359 781.193 185.064 760.744C190.764 752.83 195.264 743.187 199.536 733.845C206.472 718.965 213.625 703.584 226.043 693.954L226.655 693.496C241.16 682.613 259.898 678.776 278.032 675.121C288.239 673.032 298.84 670.873 308.197 667.465C328.567 660.135 336.401 648.86 346.33 634.641C350.014 629.374 353.876 623.912 358.625 618.211C370.316 604.18 385.219 593.164 399.648 582.503C415.326 570.923 431.535 558.945 443.511 543.127C462.17 518.458 464.894 489.804 467.534 462.061C469.407 442.321 471.341 421.911 478.973 403.031C488.661 379.107 516.185 369.924 542.816 361.042C560.976 354.979 579.766 348.731 592.076 337.823C596.832 333.612 601.191 329.107 605.416 324.743C612.358 317.402 619.593 309.99 628.426 303.975C638.02 297.484 648.341 291.875 658.382 286.448C668.958 280.956 679.24 274.914 689.186 268.349C724.043 244.478 728.413 211.691 733.085 176.928C735.287 160.52 737.563 143.553 743.105 126.777C747.61 113.213 754.744 103.596 763.709 96.6379Z" stroke="url(#paint17_radial_637_2)" stroke-width="0.75" stroke-miterlimit="10"/>
<path d="M761.897 89.6299C778.354 76.8717 800.562 72.0384 823.552 67.0408C846.036 62.2135 869.282 57.1493 887.401 44.0265L887.891 44.6971C869.634 57.9358 846.288 62.9989 823.739 67.9088C786.758 75.8772 751.845 83.5225 739.913 124.698C735.182 141.006 733.446 157.661 731.724 173.776C727.985 209.798 724.436 243.857 688.279 267.751C678.366 274.051 668.123 279.816 657.594 285.022C647.231 290.373 636.513 295.902 626.639 302.462C618.175 308.098 611.383 315.221 604.829 322.117C600.287 327.063 595.483 331.762 590.438 336.193C576.548 347.97 554.668 352.704 533.508 357.28C506.052 363.212 477.669 369.35 466.469 390.89C455.43 412.187 456.407 437.815 457.355 462.644C458.425 490.628 459.541 519.571 443.806 543.182C432.035 560.804 413.429 571.415 395.41 581.683C380.32 590.29 364.712 599.181 353.162 612.145C347.704 618.504 342.79 625.311 338.47 632.492C330.524 644.983 323.027 656.796 305.244 664.632C295.81 668.788 285.219 671.584 274.966 674.267C258.123 678.69 240.715 683.328 227.303 694.123C215.96 703.293 208.745 717.04 201.767 730.335C196.468 740.445 190.982 750.889 183.705 759.358C164.487 781.761 140.668 794.769 117.805 805.501L117.444 804.753C140.239 794.079 163.966 781.144 183.108 758.85C190.337 750.512 195.796 740.045 201.114 729.984C208.138 716.659 215.388 702.782 226.857 693.51C227.177 693.236 227.511 692.985 227.845 692.722C241.24 682.329 258.314 677.842 274.841 673.493C285.056 670.814 295.624 668.032 304.985 663.898C322.54 656.15 329.636 644.996 337.847 632.075C342.186 624.85 347.125 618.003 352.613 611.606C364.264 598.544 379.929 589.608 395.079 580.982C413.016 570.76 431.538 560.184 443.192 542.738C458.778 519.358 457.677 490.55 456.621 462.69C455.673 437.748 454.691 411.971 465.837 390.511C477.21 368.625 505.791 362.453 533.433 356.512C554.509 351.97 576.304 347.259 590.009 335.616C595.026 331.198 599.807 326.519 604.332 321.598C610.919 314.66 617.761 307.544 626.289 301.813C636.199 295.236 646.928 289.694 657.314 284.328C667.815 279.124 678.029 273.362 687.913 267.066C723.752 243.346 727.277 209.515 730.989 173.697C732.669 157.549 734.401 140.857 739.161 124.471C743.71 108.547 751.706 97.5913 761.897 89.6299Z" stroke="url(#paint18_radial_637_2)" stroke-width="0.75" stroke-miterlimit="10"/>
<path d="M759.736 82.2105C774.931 70.4603 794.602 64.463 814.927 58.3911C835.793 52.1198 857.388 45.6404 874.685 32.223L875.198 32.8785C857.774 46.3979 836.145 52.8939 815.181 59.1889C779.744 69.8247 746.271 79.8862 735.48 121.733C731.373 137.694 730.057 154.076 728.794 169.939C725.837 206.886 723.067 241.846 685.923 265.539C676.054 271.602 665.856 277.112 655.376 282.043C644.705 287.329 633.64 292.785 623.54 299.446C615.114 304.977 608.525 312.115 602.159 319.015C597.619 324.146 592.762 328.987 587.614 333.509C571.922 346.718 547.543 349.757 523.955 352.694C495.067 356.271 467.786 359.666 454.744 379.988C439.86 403.264 443.913 432.812 447.868 461.382C451.751 489.321 455.753 518.199 442.389 541.852C431.631 560.888 410.845 570.068 390.75 578.932C374.795 585.984 358.278 593.276 346.852 605.461C339.738 613.047 335.262 621.034 330.93 628.754C324.069 640.983 317.593 652.53 301.645 660.746C292.176 665.582 281.492 668.99 271.165 672.233C255.337 677.216 238.989 682.359 226.334 693.094C215.885 701.974 208.85 714.336 202.056 726.269C195.998 736.979 189.72 747.952 180.957 756.79C160.542 777.364 135.6 789.309 111.741 799.767L111.405 799.016C135.191 788.579 160.125 776.672 180.425 756.187C189.108 747.42 195.362 736.45 201.393 725.843C208.225 713.793 215.295 701.415 225.859 692.447C238.638 681.585 255.073 676.432 270.973 671.428C281.275 668.188 291.915 664.835 301.333 659.98C317.049 651.928 323.468 640.438 330.292 628.313C334.643 620.553 339.141 612.539 346.322 604.87C357.883 592.557 374.459 585.233 390.499 578.159C410.474 569.334 431.117 560.22 441.752 541.424C454.98 518.011 450.993 489.27 447.14 461.477C443.156 432.76 439.035 403.057 454.09 379.524C467.344 358.865 496.066 355.368 523.859 351.853C547.326 348.943 571.561 345.97 587.09 332.867C592.21 328.363 597.045 323.546 601.567 318.443C607.948 311.454 614.576 304.324 623.12 298.73C633.293 292.048 644.369 286.578 655.092 281.312C665.542 276.391 675.713 270.897 685.557 264.854C722.28 241.309 725.045 206.638 727.978 169.919C729.25 154.031 730.56 137.599 734.696 121.56C739.361 103.356 748.274 91.1058 759.736 82.2105Z" stroke="url(#paint19_radial_637_2)" stroke-width="0.75" stroke-miterlimit="10"/>
<path d="M756.291 74.9376C770.986 63.5324 789.628 56.9758 808.843 50.1662C828.424 43.2772 848.679 36.1487 865.313 23.3955L865.814 24.0524C849.077 36.8925 828.761 44.0404 809.12 50.9488C773.776 63.3901 740.383 75.1459 730.307 117.776C726.602 133.415 725.516 149.508 724.422 165.089C721.888 202.564 719.525 237.903 681.716 261.584C672.004 267.7 661.496 272.654 651.338 277.493C640.359 282.714 629.013 288.114 618.674 294.877C609.198 301.091 602.555 308.636 595.525 316.639C591.744 320.939 587.83 325.393 583.418 329.653C565.423 346.957 539.466 348.335 514.304 349.66C487.424 351.08 462.013 352.42 445.708 371.686C426.211 394.71 432.876 427.18 439.321 458.585C445.085 486.661 451.045 515.679 438.767 538.532C428.236 558.131 406.685 565.983 385.818 573.457C368.975 579.533 351.568 585.824 339.947 598.269C332.388 606.357 328.168 615.053 324.03 623.478C318.045 635.82 312.396 647.473 297.124 656.126C287.453 661.611 276.51 665.387 265.93 669.046C250.867 674.256 235.284 679.625 223.041 690.025C212.832 698.702 205.92 710.373 199.24 721.667C192.814 732.557 186.178 743.796 176.476 752.741C155.269 772.303 128.795 783.884 105.434 794.097L105.109 793.332C128.4 783.165 154.803 771.617 175.917 752.128C185.505 743.271 192.122 732.085 198.516 721.249C205.238 709.887 212.167 698.139 222.443 689.391C234.802 678.916 250.468 673.5 265.604 668.269C276.129 664.566 287.037 660.819 296.703 655.397C311.728 646.885 317.339 635.337 323.274 623.113C327.382 614.642 331.632 605.879 339.27 597.72C351.048 585.106 368.54 578.793 385.467 572.683C406.183 565.201 427.572 557.467 437.972 538.147C450.117 515.559 444.186 486.688 438.451 458.759C431.96 427.159 425.245 394.482 445.008 371.152C461.57 351.606 488.326 350.2 514.199 348.845C539.161 347.53 564.983 346.168 582.724 329.056C587.111 324.799 591.018 320.396 594.789 316.109C601.851 308.065 608.525 300.454 618.121 294.201C628.494 287.409 639.864 281.993 650.866 276.758C661.013 271.932 671.486 266.895 681.161 260.896C718.575 237.485 720.945 202.308 723.445 165.087C724.486 149.475 725.58 133.344 729.315 117.638C734.145 97.7999 743.792 84.6273 756.291 74.9376Z" stroke="url(#paint20_radial_637_2)" stroke-width="0.75" stroke-miterlimit="10"/>
<path d="M750.186 70.0467C765.009 58.5517 783.857 51.9341 803.309 45.1225C822.977 38.2237 843.343 31.0825 859.892 18.3515L860.405 19.007C843.713 31.8043 823.311 38.9621 803.583 45.8804C768.173 58.2916 734.737 70.0022 724.362 111.977C720.501 127.572 719.194 143.59 717.961 159.049C714.953 196.214 712.111 231.307 674.871 255.149C665.23 261.085 655.288 266.518 645.087 271.429C634.27 276.856 623.086 282.476 612.854 289.302C604.299 295.023 597.725 302.298 591.343 309.387C586.963 314.469 582.284 319.284 577.329 323.808C559.231 339.647 533.893 341.63 509.351 343.56C482.314 345.687 456.766 347.694 440.39 366.668C420.705 389.476 426.742 421.816 432.583 453.09C437.708 480.612 443.029 509.077 431.178 531.493C420.871 550.978 399.449 559.517 378.72 567.764C362.354 574.287 345.448 581.022 334.073 593.101C326.687 600.944 322.149 609.376 317.85 617.493C311.371 629.666 305.252 641.16 290.394 649.815C280.749 655.423 269.935 659.447 259.471 663.357C244.784 668.786 229.626 674.483 217.414 684.603C207.114 693.141 199.86 704.563 192.84 715.62C186.114 726.18 179.178 737.09 169.514 745.831C149.043 764.369 124.115 776.439 99.8525 788.194L99.4723 788.375L99.0826 787.593L99.4628 787.412C123.604 775.695 148.576 763.571 168.941 745.195C178.52 736.589 185.43 725.67 192.124 715.163C199.176 704.052 206.486 692.574 216.876 683.951C229.158 673.785 244.426 668.063 259.168 662.564C269.598 658.684 280.375 654.664 289.962 649.101C304.61 640.581 310.68 629.207 317.104 617.102C321.469 608.903 325.989 600.422 333.453 592.495C344.939 580.291 361.952 573.506 378.391 566.963C398.988 558.768 420.328 550.276 430.428 531.065C442.132 508.903 436.855 480.597 431.751 453.26C425.875 421.79 419.803 389.253 439.754 366.139C456.349 346.89 482.059 344.877 509.271 342.743C533.677 340.828 558.928 338.854 576.771 323.195C581.705 318.704 586.368 313.924 590.735 308.88C597.128 301.777 603.732 294.437 612.381 288.667C622.646 281.8 633.857 276.202 644.695 270.735C654.87 265.834 664.788 260.416 674.409 254.5C711.288 230.9 714.088 195.987 717.107 159.033C718.36 143.522 719.659 127.43 723.541 111.808C728.325 92.5508 737.86 79.6039 750.186 70.0467Z" stroke="url(#paint21_radial_637_2)" stroke-width="0.75" stroke-miterlimit="10"/>
<path d="M743.8 67.3294C759.045 55.5736 778.455 49.0548 798.475 42.3914C818.751 35.6614 839.713 28.6903 856.937 15.6194L857.437 16.2763C840.148 29.4299 819.076 36.4259 798.741 43.1878C762.996 55.0736 729.241 66.2944 717.943 108.75C714.319 122.352 712.754 137.096 711.244 151.334C707.825 183.562 704.281 216.893 676.721 239.182C664.782 248.833 651.145 256.561 638.052 264.001C630.842 268.104 623.37 272.336 616.293 276.837C605.009 283.996 596.149 293.083 587.581 301.875C580.872 309.02 573.681 315.698 566.059 321.86C549.201 334.839 526.744 337.484 505.021 340.083C479.068 343.151 454.584 346.027 438.323 364.812C419.379 386.646 422.442 417.609 425.396 447.508C427.709 470.904 430.099 495.081 422.02 514.989C413.017 537.231 390.696 548.878 369.108 560.142C352.676 568.726 335.676 577.601 324.588 591.1C319.825 597.127 315.527 603.508 311.731 610.187C304.913 621.584 298.474 632.35 285.475 640.731C275.146 647.368 263.537 652.11 252.298 656.696C238.714 662.238 224.662 667.971 212.852 677.107L212.765 677.117C201.707 685.703 193.608 697.409 185.778 708.721C178.884 718.687 171.802 728.975 162.572 737.341C142.735 755.406 118.943 768.536 95.9169 781.253L93.3728 782.67L92.9764 781.938L95.5205 780.522C118.493 767.886 142.247 754.748 162.015 736.74C171.09 728.442 178.239 718.185 185.076 708.275C192.949 696.896 201.081 685.161 212.254 676.474L212.328 676.465C224.23 667.257 238.33 661.505 251.975 655.944C263.165 651.375 274.714 646.653 285.021 640.044C297.859 631.794 304.245 621.109 311.012 609.805C314.82 603.089 319.135 596.673 323.919 590.613C335.118 576.988 352.2 568.066 368.704 559.449C390.148 548.239 412.327 536.671 421.225 514.716C429.215 495.019 426.834 470.916 424.533 447.631C421.558 417.547 418.48 386.447 437.675 364.285C454.171 345.26 479.963 342.21 504.965 339.263C526.57 336.727 548.914 334.083 565.539 321.256L565.862 321.006C573.339 314.944 580.388 308.37 586.955 301.332C595.558 292.512 604.451 283.383 615.804 276.179C622.912 271.612 630.389 267.429 637.612 263.325C650.719 255.895 664.269 248.178 676.127 238.586C703.499 216.519 707.008 183.317 710.483 151.245C712.001 136.969 713.563 122.2 717.205 108.534C722.243 89.5359 731.688 76.7872 743.8 67.3294Z" stroke="url(#paint22_radial_637_2)" stroke-width="0.75" stroke-miterlimit="10"/>
<path d="M737.021 65.3084C753.136 52.8397 773.721 46.6256 795.044 40.1895C816.055 33.8642 837.767 27.3213 855.466 14.2463L855.967 14.9033C838.14 28.0679 816.357 34.644 795.286 40.9887C759.37 51.8168 725.453 62.054 712.289 102.643C707.802 116.468 705.322 130.992 702.935 145.116C697.542 176.842 692.428 206.833 666.308 229.446C655.033 239.21 642.4 247.499 630.172 255.505C623.176 260.059 615.919 264.856 609.02 269.824C599.065 276.995 590.699 285.688 582.611 294.187C575.558 301.54 568.272 309.159 560.005 315.648L559.695 315.897C543.284 328.624 522.007 332.5 501.429 336.246C477.699 340.576 453.146 345.051 436.793 363.345C418.384 383.941 418.036 412.45 417.693 440.019C417.44 461.665 417.156 484.03 408.273 502.702C398.326 523.586 377.998 537.111 358.343 550.17C343.206 560.235 327.546 570.648 316.755 584.339C312.384 589.947 308.66 595.632 305.102 601.122C297.466 612.926 290.247 624.106 276.843 632.884C266.736 639.496 255.474 644.536 244.595 649.532C231.344 655.475 217.64 661.619 205.959 670.677L205.872 670.687C194.757 679.33 186.198 690.838 177.921 701.963C170.82 711.539 163.461 721.383 154.463 729.584C135.86 746.494 114.199 760.083 93.2632 773.226L87.3022 776.973L86.8578 776.26L92.8202 772.525C113.732 759.397 135.365 745.887 153.902 728.947C162.846 720.814 170.167 710.975 177.25 701.464C185.559 690.285 194.163 678.734 205.358 670.019L205.457 670.008C217.205 660.88 230.957 654.717 244.256 648.756C255.125 643.887 266.35 638.851 276.407 632.245C289.668 623.533 296.836 612.459 304.431 600.735C307.987 595.22 311.672 589.527 316.115 583.886C327.01 570.121 342.713 559.64 357.908 549.543C377.456 536.533 397.693 523.082 407.538 502.409C416.349 483.871 416.67 461.615 416.885 440.073C417.223 412.354 417.572 383.633 436.185 362.851C452.739 344.333 477.403 339.846 501.305 335.484C521.773 331.763 542.951 327.898 559.2 315.289L559.511 315.053C567.719 308.595 574.997 301.015 582.018 293.703C590.149 285.262 598.54 276.454 608.542 269.253C615.489 264.266 622.7 259.512 629.717 254.918C641.92 246.915 654.542 238.639 665.772 228.919C691.698 206.478 696.768 176.642 702.127 145.058C704.522 131.007 706.999 116.347 711.506 102.47C716.936 85.5938 725.88 73.9417 737.021 65.3084Z" stroke="url(#paint23_radial_637_2)" stroke-width="0.75" stroke-miterlimit="10"/>
<path d="M730.034 63.5739C747.067 50.362 769.077 44.4614 791.89 38.3442C813.695 32.5046 836.229 26.4693 854.567 13.3968L855.057 14.0674C836.645 27.2611 813.972 33.2872 792.108 39.1586C756.035 48.8272 721.955 57.9559 706.66 96.5459C701.104 110.568 697.534 124.965 694.084 138.884C686.762 168.525 679.828 196.394 655.38 219.28C645.188 228.77 634.059 237.289 623.294 245.479C616.091 250.971 608.647 256.653 601.579 262.556C593.516 269.298 586.17 277.273 579.082 284.982C571.284 293.497 563.119 302.305 554.046 309.413L553.726 309.675C537.66 322.138 517.622 327.438 498.317 332.567C475.701 338.549 452.308 344.733 435.786 362.433C417.922 381.539 413.862 407.376 409.931 432.36C406.817 452.091 403.605 472.497 393.683 489.746C382.601 509.019 364.891 524.087 347.751 538.663C333.796 550.523 319.374 562.799 308.598 577.277C305.341 581.669 302.355 586.029 299.478 590.239C290.742 603.058 282.502 615.168 268.03 624.907C258.154 631.555 247.277 636.902 236.744 642.072C223.91 648.38 210.649 654.9 199.141 663.826L198.728 664.161C187.579 672.946 178.541 684.208 169.818 695.158C162.552 704.277 155.035 713.713 146.252 721.714C129.457 737.016 110.577 750.388 92.334 763.312C88.6086 765.94 84.9007 768.575 81.2102 771.217L80.7205 770.546C84.4142 767.896 88.1354 765.268 91.8429 762.629C110.072 749.694 128.927 736.325 145.675 721.053C154.4 713.084 161.897 703.688 169.151 694.583C177.917 683.565 186.962 672.252 198.172 663.46C209.819 654.319 223.317 647.684 236.352 641.277C246.85 636.124 257.702 630.78 267.532 624.162C281.852 614.516 290.113 602.478 298.768 589.719C301.645 585.509 304.617 581.137 307.897 576.731C318.765 562.179 333.196 549.877 347.184 537.977C364.323 523.5 381.921 508.433 392.99 489.274C402.829 472.172 406.025 451.843 409.121 432.177C413.088 407.064 417.177 381.16 435.189 361.812C451.941 343.935 475.394 337.72 498.144 331.71C517.403 326.612 537.318 321.338 553.175 309.024L553.485 308.776C562.501 301.712 570.593 292.925 578.418 284.431C585.542 276.706 592.911 268.715 601.007 261.932C608.086 256.016 615.542 250.332 622.745 244.84C633.555 236.595 644.722 228.084 654.832 218.641C679.112 195.937 686.001 168.111 693.319 138.658C696.741 124.717 700.36 110.302 705.933 96.2153C710.819 83.3294 719.157 72.0366 730.034 63.5739Z" stroke="url(#paint24_radial_637_2)" stroke-width="0.75" stroke-miterlimit="10"/>
<path d="M722.818 61.5775C740.829 47.6029 764.109 42.0713 788.267 36.327C810.875 30.947 834.241 25.3932 853.282 12.228L853.761 12.9125C834.592 26.1673 811.141 31.7434 788.458 37.1318C752.376 45.7245 718.286 53.8898 700.981 90.4541C694.279 104.631 689.555 119.022 684.977 132.932C675.909 160.543 667.296 186.649 644.733 209.371C635.081 219.087 624.654 228.277 614.569 237.166C607.82 243.12 600.831 249.277 594.117 255.54C587.403 261.803 580.924 269.141 574.71 276.174C566.3 285.686 557.6 295.519 547.887 303.276L546.909 304.038C531.409 316.074 512.699 322.588 494.631 328.904C473.148 336.36 450.951 344.148 434.343 361.195C417.034 379.022 409.37 402.565 401.942 425.329C396.148 443.086 390.16 461.44 379.615 477.182C367.892 494.674 353.053 510.542 338.705 525.878C325.517 539.968 311.908 554.531 300.649 570.379C299.29 572.304 297.964 574.188 296.671 576.03C285.571 591.848 275.966 605.504 259.315 617.007C249.7 623.638 239.217 629.253 229.077 634.691C216.354 641.526 203.176 648.55 191.623 657.743C180.405 666.586 170.864 677.717 161.695 688.493C154.288 697.14 146.64 706.089 138.107 713.874C124.03 726.75 108.804 738.779 94.0873 750.437C87.8601 755.367 81.4506 760.455 75.1662 765.542L74.6422 764.901C80.9019 759.817 87.3319 754.688 93.5742 749.782C108.275 738.088 123.441 726.09 137.549 713.261C146.047 705.505 153.673 696.583 161.057 687.952C170.297 677.143 179.847 665.973 191.18 657.042C202.749 647.884 215.971 640.805 228.733 633.979C238.85 628.556 249.308 622.944 258.889 616.342C275.414 604.941 284.973 591.328 296.03 575.577C297.334 573.713 298.648 571.835 300.009 569.926C311.274 554.027 324.931 539.433 338.129 525.33C352.466 510.008 367.272 494.181 378.939 476.746C389.419 461.099 395.389 442.796 401.165 425.105C408.581 402.241 416.335 378.601 433.902 360.619C450.646 343.444 472.943 335.657 494.505 328.129C512.513 321.833 531.125 315.342 546.526 303.418L547.479 302.659C557.135 294.958 565.812 285.14 574.201 275.656C580.437 268.608 586.883 261.311 593.663 254.965C600.443 248.619 607.353 242.535 614.114 236.579C624.188 227.704 634.604 218.527 644.233 208.826C666.709 186.227 675.232 160.207 684.288 132.71C688.863 118.775 693.584 104.36 700.318 90.1288C705.419 78.9443 713.136 69.1516 722.818 61.5775Z" stroke="url(#paint25_radial_637_2)" stroke-width="0.75" stroke-miterlimit="10"/>
<defs>
<radialGradient id="paint0_radial_637_2" cx="0" cy="0" r="1" gradientUnits="userSpaceOnUse" gradientTransform="translate(600.675 520.347) rotate(135.83) scale(384.363 384.363)">
<stop offset="0.14" stop-color="#FFD981"/>
<stop offset="0.3" stop-color="#F59976"/>
<stop offset="0.52" stop-color="#8CD5D3"/>
<stop offset="0.56" stop-color="#A7D7BF"/>
<stop offset="0.67" stop-color="#E6DA92"/>
<stop offset="0.71" stop-color="#FFDC80"/>
<stop offset="0.83" stop-color="#FFC176"/>
<stop offset="0.9" stop-color="#FFB671" stop-opacity="0.99"/>
<stop offset="0.93" stop-color="#FFC377" stop-opacity="0.71"/>
<stop offset="0.95" stop-color="#FFCD7B" stop-opacity="0.49"/>
<stop offset="0.97" stop-color="#FFD57E" stop-opacity="0.33"/>
<stop offset="0.99" stop-color="#FFD980" stop-opacity="0.24"/>
<stop offset="1" stop-color="#FFDB81" stop-opacity="0.2"/>
</radialGradient>
<radialGradient id="paint1_radial_637_2" cx="0" cy="0" r="1" gradientUnits="userSpaceOnUse" gradientTransform="translate(595.666 515.601) rotate(135.83) scale(384.425 384.425)">
<stop offset="0.14" stop-color="#FFD981"/>
<stop offset="0.3" stop-color="#F59976"/>
<stop offset="0.52" stop-color="#8CD5D3"/>
<stop offset="0.56" stop-color="#A7D7BF"/>
<stop offset="0.67" stop-color="#E6DA92"/>
<stop offset="0.71" stop-color="#FFDC80"/>
<stop offset="0.83" stop-color="#FFC176"/>
<stop offset="0.9" stop-color="#FFB671" stop-opacity="0.99"/>
<stop offset="0.93" stop-color="#FFC377" stop-opacity="0.71"/>
<stop offset="0.95" stop-color="#FFCD7B" stop-opacity="0.49"/>
<stop offset="0.97" stop-color="#FFD57E" stop-opacity="0.33"/>
<stop offset="0.99" stop-color="#FFD980" stop-opacity="0.24"/>
<stop offset="1" stop-color="#FFDB81" stop-opacity="0.2"/>
</radialGradient>
<radialGradient id="paint2_radial_637_2" cx="0" cy="0" r="1" gradientUnits="userSpaceOnUse" gradientTransform="translate(592.099 512.106) rotate(135.83) scale(384.575 384.575)">
<stop offset="0.14" stop-color="#FFD981"/>
<stop offset="0.3" stop-color="#F59976"/>
<stop offset="0.52" stop-color="#8CD5D3"/>
<stop offset="0.56" stop-color="#A7D7BF"/>
<stop offset="0.67" stop-color="#E6DA92"/>
<stop offset="0.71" stop-color="#FFDC80"/>
<stop offset="0.83" stop-color="#FFC176"/>
<stop offset="0.9" stop-color="#FFB671" stop-opacity="0.99"/>
<stop offset="0.93" stop-color="#FFC377" stop-opacity="0.71"/>
<stop offset="0.95" stop-color="#FFCD7B" stop-opacity="0.49"/>
<stop offset="0.97" stop-color="#FFD57E" stop-opacity="0.33"/>
<stop offset="0.99" stop-color="#FFD980" stop-opacity="0.24"/>
<stop offset="1" stop-color="#FFDB81" stop-opacity="0.2"/>
</radialGradient>
<radialGradient id="paint3_radial_637_2" cx="0" cy="0" r="1" gradientUnits="userSpaceOnUse" gradientTransform="translate(589.208 509.13) rotate(135.83) scale(384.786 384.786)">
<stop offset="0.14" stop-color="#FFD981"/>
<stop offset="0.3" stop-color="#F59976"/>
<stop offset="0.52" stop-color="#8CD5D3"/>
<stop offset="0.56" stop-color="#A7D7BF"/>
<stop offset="0.67" stop-color="#E6DA92"/>
<stop offset="0.71" stop-color="#FFDC80"/>
<stop offset="0.83" stop-color="#FFC176"/>
<stop offset="0.9" stop-color="#FFB671" stop-opacity="0.99"/>
<stop offset="0.93" stop-color="#FFC377" stop-opacity="0.71"/>
<stop offset="0.95" stop-color="#FFCD7B" stop-opacity="0.49"/>
<stop offset="0.97" stop-color="#FFD57E" stop-opacity="0.33"/>
<stop offset="0.99" stop-color="#FFD980" stop-opacity="0.24"/>
<stop offset="1" stop-color="#FFDB81" stop-opacity="0.2"/>
</radialGradient>
<radialGradient id="paint4_radial_637_2" cx="0" cy="0" r="1" gradientUnits="userSpaceOnUse" gradientTransform="translate(586.507 506.333) rotate(135.83) scale(385.022 385.022)">
<stop offset="0.14" stop-color="#FFD981"/>
<stop offset="0.3" stop-color="#F59976"/>
<stop offset="0.52" stop-color="#8CD5D3"/>
<stop offset="0.56" stop-color="#A7D7BF"/>
<stop offset="0.67" stop-color="#E6DA92"/>
<stop offset="0.71" stop-color="#FFDC80"/>
<stop offset="0.83" stop-color="#FFC176"/>
<stop offset="0.9" stop-color="#FFB671" stop-opacity="0.99"/>
<stop offset="0.93" stop-color="#FFC377" stop-opacity="0.71"/>
<stop offset="0.95" stop-color="#FFCD7B" stop-opacity="0.49"/>
<stop offset="0.97" stop-color="#FFD57E" stop-opacity="0.33"/>
<stop offset="0.99" stop-color="#FFD980" stop-opacity="0.24"/>
<stop offset="1" stop-color="#FFDB81" stop-opacity="0.2"/>
</radialGradient>
<radialGradient id="paint5_radial_637_2" cx="0" cy="0" r="1" gradientUnits="userSpaceOnUse" gradientTransform="translate(583.435 503.188) rotate(135.83) scale(385.258)">
<stop offset="0.14" stop-color="#FFD981"/>
<stop offset="0.3" stop-color="#F59976"/>
<stop offset="0.52" stop-color="#8CD5D3"/>
<stop offset="0.56" stop-color="#A7D7BF"/>
<stop offset="0.67" stop-color="#E6DA92"/>
<stop offset="0.71" stop-color="#FFDC80"/>
<stop offset="0.83" stop-color="#FFC176"/>
<stop offset="0.9" stop-color="#FFB671" stop-opacity="0.99"/>
<stop offset="0.93" stop-color="#FFC377" stop-opacity="0.71"/>
<stop offset="0.95" stop-color="#FFCD7B" stop-opacity="0.49"/>
<stop offset="0.97" stop-color="#FFD57E" stop-opacity="0.33"/>
<stop offset="0.99" stop-color="#FFD980" stop-opacity="0.24"/>
<stop offset="1" stop-color="#FFDB81" stop-opacity="0.2"/>
</radialGradient>
<radialGradient id="paint6_radial_637_2" cx="0" cy="0" r="1" gradientUnits="userSpaceOnUse" gradientTransform="translate(579.416 499.265) rotate(135.83) scale(385.432 385.432)">
<stop offset="0.14" stop-color="#FFD981"/>
<stop offset="0.3" stop-color="#F59976"/>
<stop offset="0.52" stop-color="#8CD5D3"/>
<stop offset="0.56" stop-color="#A7D7BF"/>
<stop offset="0.67" stop-color="#E6DA92"/>
<stop offset="0.71" stop-color="#FFDC80"/>
<stop offset="0.83" stop-color="#FFC176"/>
<stop offset="0.9" stop-color="#FFB671" stop-opacity="0.99"/>
<stop offset="0.93" stop-color="#FFC377" stop-opacity="0.71"/>
<stop offset="0.95" stop-color="#FFCD7B" stop-opacity="0.49"/>
<stop offset="0.97" stop-color="#FFD57E" stop-opacity="0.33"/>
<stop offset="0.99" stop-color="#FFD980" stop-opacity="0.24"/>
<stop offset="1" stop-color="#FFDB81" stop-opacity="0.2"/>
</radialGradient>
<radialGradient id="paint7_radial_637_2" cx="0" cy="0" r="1" gradientUnits="userSpaceOnUse" gradientTransform="translate(573.67 493.885) rotate(135.83) scale(385.481 385.481)">
<stop offset="0.14" stop-color="#FFD981"/>
<stop offset="0.3" stop-color="#F59976"/>
<stop offset="0.52" stop-color="#8CD5D3"/>
<stop offset="0.56" stop-color="#A7D7BF"/>
<stop offset="0.67" stop-color="#E6DA92"/>
<stop offset="0.71" stop-color="#FFDC80"/>
<stop offset="0.83" stop-color="#FFC176"/>
<stop offset="0.9" stop-color="#FFB671" stop-opacity="0.99"/>
<stop offset="0.93" stop-color="#FFC377" stop-opacity="0.71"/>
<stop offset="0.95" stop-color="#FFCD7B" stop-opacity="0.49"/>
<stop offset="0.97" stop-color="#FFD57E" stop-opacity="0.33"/>
<stop offset="0.99" stop-color="#FFD980" stop-opacity="0.24"/>
<stop offset="1" stop-color="#FFDB81" stop-opacity="0.2"/>
</radialGradient>
<radialGradient id="paint8_radial_637_2" cx="0" cy="0" r="1" gradientUnits="userSpaceOnUse" gradientTransform="translate(565.208 485.637) rotate(135.83) scale(385.394 385.394)">
<stop offset="0.14" stop-color="#FFD981"/>
<stop offset="0.3" stop-color="#F59976"/>
<stop offset="0.52" stop-color="#8CD5D3"/>
<stop offset="0.56" stop-color="#A7D7BF"/>
<stop offset="0.67" stop-color="#E6DA92"/>
<stop offset="0.71" stop-color="#FFDC80"/>
<stop offset="0.83" stop-color="#FFC176"/>
<stop offset="0.9" stop-color="#FFB671" stop-opacity="0.99"/>
<stop offset="0.93" stop-color="#FFC377" stop-opacity="0.71"/>
<stop offset="0.95" stop-color="#FFCD7B" stop-opacity="0.49"/>
<stop offset="0.97" stop-color="#FFD57E" stop-opacity="0.33"/>
<stop offset="0.99" stop-color="#FFD980" stop-opacity="0.24"/>
<stop offset="1" stop-color="#FFDB81" stop-opacity="0.2"/>
</radialGradient>
<radialGradient id="paint9_radial_637_2" cx="0" cy="0" r="1" gradientUnits="userSpaceOnUse" gradientTransform="translate(554.756 475.218) rotate(135.83) scale(385.295 385.295)">
<stop offset="0.14" stop-color="#FFD981"/>
<stop offset="0.3" stop-color="#F59976"/>
<stop offset="0.52" stop-color="#8CD5D3"/>
<stop offset="0.56" stop-color="#A7D7BF"/>
<stop offset="0.67" stop-color="#E6DA92"/>
<stop offset="0.71" stop-color="#FFDC80"/>
<stop offset="0.83" stop-color="#FFC176"/>
<stop offset="0.9" stop-color="#FFB671" stop-opacity="0.99"/>
<stop offset="0.93" stop-color="#FFC377" stop-opacity="0.71"/>
<stop offset="0.95" stop-color="#FFCD7B" stop-opacity="0.49"/>
<stop offset="0.97" stop-color="#FFD57E" stop-opacity="0.33"/>
<stop offset="0.99" stop-color="#FFD980" stop-opacity="0.24"/>
<stop offset="1" stop-color="#FFDB81" stop-opacity="0.2"/>
</radialGradient>
<radialGradient id="paint10_radial_637_2" cx="0" cy="0" r="1" gradientUnits="userSpaceOnUse" gradientTransform="translate(543.295 463.668) rotate(135.83) scale(385.171)">
<stop offset="0.14" stop-color="#FFD981"/>
<stop offset="0.3" stop-color="#F59976"/>
<stop offset="0.52" stop-color="#8CD5D3"/>
<stop offset="0.56" stop-color="#A7D7BF"/>
<stop offset="0.67" stop-color="#E6DA92"/>
<stop offset="0.71" stop-color="#FFDC80"/>
<stop offset="0.83" stop-color="#FFC176"/>
<stop offset="0.9" stop-color="#FFB671" stop-opacity="0.99"/>
<stop offset="0.93" stop-color="#FFC377" stop-opacity="0.71"/>
<stop offset="0.95" stop-color="#FFCD7B" stop-opacity="0.49"/>
<stop offset="0.97" stop-color="#FFD57E" stop-opacity="0.33"/>
<stop offset="0.99" stop-color="#FFD980" stop-opacity="0.24"/>
<stop offset="1" stop-color="#FFDB81" stop-opacity="0.2"/>
</radialGradient>
<radialGradient id="paint11_radial_637_2" cx="0" cy="0" r="1" gradientUnits="userSpaceOnUse" gradientTransform="translate(531.685 451.966) rotate(135.83) scale(385.071 385.071)">
<stop offset="0.14" stop-color="#FFD981"/>
<stop offset="0.3" stop-color="#F59976"/>
<stop offset="0.52" stop-color="#8CD5D3"/>
<stop offset="0.56" stop-color="#A7D7BF"/>
<stop offset="0.67" stop-color="#E6DA92"/>
<stop offset="0.71" stop-color="#FFDC80"/>
<stop offset="0.83" stop-color="#FFC176"/>
<stop offset="0.9" stop-color="#FFB671" stop-opacity="0.99"/>
<stop offset="0.93" stop-color="#FFC377" stop-opacity="0.71"/>
<stop offset="0.95" stop-color="#FFCD7B" stop-opacity="0.49"/>
<stop offset="0.97" stop-color="#FFD57E" stop-opacity="0.33"/>
<stop offset="0.99" stop-color="#FFD980" stop-opacity="0.24"/>
<stop offset="1" stop-color="#FFDB81" stop-opacity="0.2"/>
</radialGradient>
<radialGradient id="paint12_radial_637_2" cx="0" cy="0" r="1" gradientUnits="userSpaceOnUse" gradientTransform="translate(520.931 441.217) rotate(135.83) scale(384.997 384.997)">
<stop offset="0.14" stop-color="#FFD981"/>
<stop offset="0.3" stop-color="#F59976"/>
<stop offset="0.52" stop-color="#8CD5D3"/>
<stop offset="0.56" stop-color="#A7D7BF"/>
<stop offset="0.67" stop-color="#E6DA92"/>
<stop offset="0.71" stop-color="#FFDC80"/>
<stop offset="0.83" stop-color="#FFC176"/>
<stop offset="0.9" stop-color="#FFB671" stop-opacity="0.99"/>
<stop offset="0.93" stop-color="#FFC377" stop-opacity="0.71"/>
<stop offset="0.95" stop-color="#FFCD7B" stop-opacity="0.49"/>
<stop offset="0.97" stop-color="#FFD57E" stop-opacity="0.33"/>
<stop offset="0.99" stop-color="#FFD980" stop-opacity="0.24"/>
<stop offset="1" stop-color="#FFDB81" stop-opacity="0.2"/>
</radialGradient>
<radialGradient id="paint13_radial_637_2" cx="0" cy="0" r="1" gradientUnits="userSpaceOnUse" gradientTransform="translate(512.071 432.542) rotate(135.83) scale(384.984)">
<stop offset="0.14" stop-color="#FFD981"/>
<stop offset="0.3" stop-color="#F59976"/>
<stop offset="0.52" stop-color="#8CD5D3"/>
<stop offset="0.56" stop-color="#A7D7BF"/>
<stop offset="0.67" stop-color="#E6DA92"/>
<stop offset="0.71" stop-color="#FFDC80"/>
<stop offset="0.83" stop-color="#FFC176"/>
<stop offset="0.9" stop-color="#FFB671" stop-opacity="0.99"/>
<stop offset="0.93" stop-color="#FFC377" stop-opacity="0.71"/>
<stop offset="0.95" stop-color="#FFCD7B" stop-opacity="0.49"/>
<stop offset="0.97" stop-color="#FFD57E" stop-opacity="0.33"/>
<stop offset="0.99" stop-color="#FFD980" stop-opacity="0.24"/>
<stop offset="1" stop-color="#FFDB81" stop-opacity="0.2"/>
</radialGradient>
<radialGradient id="paint14_radial_637_2" cx="0" cy="0" r="1" gradientUnits="userSpaceOnUse" gradientTransform="translate(505.502 426.404) rotate(135.83) scale(384.935 384.935)">
<stop offset="0.14" stop-color="#FFD981"/>
<stop offset="0.3" stop-color="#F59976"/>
<stop offset="0.52" stop-color="#8CD5D3"/>
<stop offset="0.56" stop-color="#A7D7BF"/>
<stop offset="0.67" stop-color="#E6DA92"/>
<stop offset="0.71" stop-color="#FFDC80"/>
<stop offset="0.83" stop-color="#FFC176"/>
<stop offset="0.9" stop-color="#FFB671" stop-opacity="0.99"/>
<stop offset="0.93" stop-color="#FFC377" stop-opacity="0.71"/>
<stop offset="0.95" stop-color="#FFCD7B" stop-opacity="0.49"/>
<stop offset="0.97" stop-color="#FFD57E" stop-opacity="0.33"/>
<stop offset="0.99" stop-color="#FFD980" stop-opacity="0.24"/>
<stop offset="1" stop-color="#FFDB81" stop-opacity="0.2"/>
</radialGradient>
<radialGradient id="paint15_radial_637_2" cx="0" cy="0" r="1" gradientUnits="userSpaceOnUse" gradientTransform="translate(499.744 421.296) rotate(135.83) scale(384.773 384.773)">
<stop offset="0.14" stop-color="#FFD981"/>
<stop offset="0.3" stop-color="#F59976"/>
<stop offset="0.52" stop-color="#8CD5D3"/>
<stop offset="0.56" stop-color="#A7D7BF"/>
<stop offset="0.67" stop-color="#E6DA92"/>
<stop offset="0.71" stop-color="#FFDC80"/>
<stop offset="0.83" stop-color="#FFC176"/>
<stop offset="0.9" stop-color="#FFB671" stop-opacity="0.99"/>
<stop offset="0.93" stop-color="#FFC377" stop-opacity="0.71"/>
<stop offset="0.95" stop-color="#FFCD7B" stop-opacity="0.49"/>
<stop offset="0.97" stop-color="#FFD57E" stop-opacity="0.33"/>
<stop offset="0.99" stop-color="#FFD980" stop-opacity="0.24"/>
<stop offset="1" stop-color="#FFDB81" stop-opacity="0.2"/>
</radialGradient>
<radialGradient id="paint16_radial_637_2" cx="0" cy="0" r="1" gradientUnits="userSpaceOnUse" gradientTransform="translate(494.355 416.747) rotate(135.83) scale(384.525 384.525)">
<stop offset="0.14" stop-color="#FFD981"/>
<stop offset="0.3" stop-color="#F59976"/>
<stop offset="0.52" stop-color="#8CD5D3"/>
<stop offset="0.56" stop-color="#A7D7BF"/>
<stop offset="0.67" stop-color="#E6DA92"/>
<stop offset="0.71" stop-color="#FFDC80"/>
<stop offset="0.83" stop-color="#FFC176"/>
<stop offset="0.9" stop-color="#FFB671" stop-opacity="0.99"/>
<stop offset="0.93" stop-color="#FFC377" stop-opacity="0.71"/>
<stop offset="0.95" stop-color="#FFCD7B" stop-opacity="0.49"/>
<stop offset="0.97" stop-color="#FFD57E" stop-opacity="0.33"/>
<stop offset="0.99" stop-color="#FFD980" stop-opacity="0.24"/>
<stop offset="1" stop-color="#FFDB81" stop-opacity="0.2"/>
</radialGradient>
<radialGradient id="paint17_radial_637_2" cx="0" cy="0" r="1" gradientUnits="userSpaceOnUse" gradientTransform="translate(489.19 412.5) rotate(135.83) scale(384.289 384.289)">
<stop offset="0.14" stop-color="#FFD981"/>
<stop offset="0.3" stop-color="#F59976"/>
<stop offset="0.52" stop-color="#8CD5D3"/>
<stop offset="0.56" stop-color="#A7D7BF"/>
<stop offset="0.67" stop-color="#E6DA92"/>
<stop offset="0.71" stop-color="#FFDC80"/>
<stop offset="0.83" stop-color="#FFC176"/>
<stop offset="0.9" stop-color="#FFB671" stop-opacity="0.99"/>
<stop offset="0.93" stop-color="#FFC377" stop-opacity="0.71"/>
<stop offset="0.95" stop-color="#FFCD7B" stop-opacity="0.49"/>
<stop offset="0.97" stop-color="#FFD57E" stop-opacity="0.33"/>
<stop offset="0.99" stop-color="#FFD980" stop-opacity="0.24"/>
<stop offset="1" stop-color="#FFDB81" stop-opacity="0.2"/>
</radialGradient>
<radialGradient id="paint18_radial_637_2" cx="0" cy="0" r="1" gradientUnits="userSpaceOnUse" gradientTransform="translate(486.449 410.73) rotate(135.83) scale(384.289 384.289)">
<stop offset="0.14" stop-color="#FFD981"/>
<stop offset="0.3" stop-color="#F59976"/>
<stop offset="0.52" stop-color="#8CD5D3"/>
<stop offset="0.56" stop-color="#A7D7BF"/>
<stop offset="0.67" stop-color="#E6DA92"/>
<stop offset="0.71" stop-color="#FFDC80"/>
<stop offset="0.83" stop-color="#FFC176"/>
<stop offset="0.9" stop-color="#FFB671" stop-opacity="0.99"/>
<stop offset="0.93" stop-color="#FFC377" stop-opacity="0.71"/>
<stop offset="0.95" stop-color="#FFCD7B" stop-opacity="0.49"/>
<stop offset="0.97" stop-color="#FFD57E" stop-opacity="0.33"/>
<stop offset="0.99" stop-color="#FFD980" stop-opacity="0.24"/>
<stop offset="1" stop-color="#FFDB81" stop-opacity="0.2"/>
</radialGradient>
<radialGradient id="paint19_radial_637_2" cx="0" cy="0" r="1" gradientUnits="userSpaceOnUse" gradientTransform="translate(483.06 408.204) rotate(135.83) scale(384.326)">
<stop offset="0.14" stop-color="#FFD981"/>
<stop offset="0.3" stop-color="#F59976"/>
<stop offset="0.52" stop-color="#8CD5D3"/>
<stop offset="0.56" stop-color="#A7D7BF"/>
<stop offset="0.67" stop-color="#E6DA92"/>
<stop offset="0.71" stop-color="#FFDC80"/>
<stop offset="0.83" stop-color="#FFC176"/>
<stop offset="0.9" stop-color="#FFB671" stop-opacity="0.99"/>
<stop offset="0.93" stop-color="#FFC377" stop-opacity="0.71"/>
<stop offset="0.95" stop-color="#FFCD7B" stop-opacity="0.49"/>
<stop offset="0.97" stop-color="#FFD57E" stop-opacity="0.33"/>
<stop offset="0.99" stop-color="#FFD980" stop-opacity="0.24"/>
<stop offset="1" stop-color="#FFDB81" stop-opacity="0.2"/>
</radialGradient>
<radialGradient id="paint20_radial_637_2" cx="0" cy="0" r="1" gradientUnits="userSpaceOnUse" gradientTransform="translate(477.051 402.785) rotate(135.83) scale(384.488 384.488)">
<stop offset="0.14" stop-color="#FFD981"/>
<stop offset="0.3" stop-color="#F59976"/>
<stop offset="0.52" stop-color="#8CD5D3"/>
<stop offset="0.56" stop-color="#A7D7BF"/>
<stop offset="0.67" stop-color="#E6DA92"/>
<stop offset="0.71" stop-color="#FFDC80"/>
<stop offset="0.83" stop-color="#FFC176"/>
<stop offset="0.9" stop-color="#FFB671" stop-opacity="0.99"/>
<stop offset="0.93" stop-color="#FFC377" stop-opacity="0.71"/>
<stop offset="0.95" stop-color="#FFCD7B" stop-opacity="0.49"/>
<stop offset="0.97" stop-color="#FFD57E" stop-opacity="0.33"/>
<stop offset="0.99" stop-color="#FFD980" stop-opacity="0.24"/>
<stop offset="1" stop-color="#FFDB81" stop-opacity="0.2"/>
</radialGradient>
<radialGradient id="paint21_radial_637_2" cx="0" cy="0" r="1" gradientUnits="userSpaceOnUse" gradientTransform="translate(470.692 396.772) rotate(135.83) scale(384.388 384.388)">
<stop offset="0.14" stop-color="#FFD981"/>
<stop offset="0.3" stop-color="#F59976"/>
<stop offset="0.52" stop-color="#8CD5D3"/>
<stop offset="0.56" stop-color="#A7D7BF"/>
<stop offset="0.67" stop-color="#E6DA92"/>
<stop offset="0.71" stop-color="#FFDC80"/>
<stop offset="0.83" stop-color="#FFC176"/>
<stop offset="0.9" stop-color="#FFB671" stop-opacity="0.99"/>
<stop offset="0.93" stop-color="#FFC377" stop-opacity="0.71"/>
<stop offset="0.95" stop-color="#FFCD7B" stop-opacity="0.49"/>
<stop offset="0.97" stop-color="#FFD57E" stop-opacity="0.33"/>
<stop offset="0.99" stop-color="#FFD980" stop-opacity="0.24"/>
<stop offset="1" stop-color="#FFDB81" stop-opacity="0.2"/>
</radialGradient>
<radialGradient id="paint22_radial_637_2" cx="0" cy="0" r="1" gradientUnits="userSpaceOnUse" gradientTransform="translate(463.847 390.156) rotate(135.83) scale(383.991 383.991)">
<stop offset="0.14" stop-color="#FFD981"/>
<stop offset="0.3" stop-color="#F59976"/>
<stop offset="0.52" stop-color="#8CD5D3"/>
<stop offset="0.56" stop-color="#A7D7BF"/>
<stop offset="0.67" stop-color="#E6DA92"/>
<stop offset="0.71" stop-color="#FFDC80"/>
<stop offset="0.83" stop-color="#FFC176"/>
<stop offset="0.9" stop-color="#FFB671" stop-opacity="0.99"/>
<stop offset="0.93" stop-color="#FFC377" stop-opacity="0.71"/>
<stop offset="0.95" stop-color="#FFCD7B" stop-opacity="0.49"/>
<stop offset="0.97" stop-color="#FFD57E" stop-opacity="0.33"/>
<stop offset="0.99" stop-color="#FFD980" stop-opacity="0.24"/>
<stop offset="1" stop-color="#FFDB81" stop-opacity="0.2"/>
</radialGradient>
<radialGradient id="paint23_radial_637_2" cx="0" cy="0" r="1" gradientUnits="userSpaceOnUse" gradientTransform="translate(455.077 381.447) rotate(135.83) scale(383.705)">
<stop offset="0.14" stop-color="#FFD981"/>
<stop offset="0.3" stop-color="#F59976"/>
<stop offset="0.52" stop-color="#8CD5D3"/>
<stop offset="0.56" stop-color="#A7D7BF"/>
<stop offset="0.67" stop-color="#E6DA92"/>
<stop offset="0.71" stop-color="#FFDC80"/>
<stop offset="0.83" stop-color="#FFC176"/>
<stop offset="0.9" stop-color="#FFB671" stop-opacity="0.99"/>
<stop offset="0.93" stop-color="#FFC377" stop-opacity="0.71"/>
<stop offset="0.95" stop-color="#FFCD7B" stop-opacity="0.49"/>
<stop offset="0.97" stop-color="#FFD57E" stop-opacity="0.33"/>
<stop offset="0.99" stop-color="#FFD980" stop-opacity="0.24"/>
<stop offset="1" stop-color="#FFDB81" stop-opacity="0.2"/>
</radialGradient>
<radialGradient id="paint24_radial_637_2" cx="0" cy="0" r="1" gradientUnits="userSpaceOnUse" gradientTransform="translate(448.243 374.716) rotate(135.83) scale(383.618 383.618)">
<stop offset="0.14" stop-color="#FFD981"/>
<stop offset="0.3" stop-color="#F59976"/>
<stop offset="0.52" stop-color="#8CD5D3"/>
<stop offset="0.56" stop-color="#A7D7BF"/>
<stop offset="0.67" stop-color="#E6DA92"/>
<stop offset="0.71" stop-color="#FFDC80"/>
<stop offset="0.83" stop-color="#FFC176"/>
<stop offset="0.9" stop-color="#FFB671" stop-opacity="0.99"/>
<stop offset="0.93" stop-color="#FFC377" stop-opacity="0.71"/>
<stop offset="0.95" stop-color="#FFCD7B" stop-opacity="0.49"/>
<stop offset="0.97" stop-color="#FFD57E" stop-opacity="0.33"/>
<stop offset="0.99" stop-color="#FFD980" stop-opacity="0.24"/>
<stop offset="1" stop-color="#FFDB81" stop-opacity="0.2"/>
</radialGradient>
<radialGradient id="paint25_radial_637_2" cx="0" cy="0" r="1" gradientUnits="userSpaceOnUse" gradientTransform="translate(441.808 368.413) rotate(135.83) scale(383.581 383.581)">
<stop offset="0.14" stop-color="#FFD981"/>
<stop offset="0.3" stop-color="#F59976"/>
<stop offset="0.52" stop-color="#8CD5D3"/>
<stop offset="0.56" stop-color="#A7D7BF"/>
<stop offset="0.67" stop-color="#E6DA92"/>
<stop offset="0.71" stop-color="#FFDC80"/>
<stop offset="0.83" stop-color="#FFC176"/>
<stop offset="0.9" stop-color="#FFB671" stop-opacity="0.99"/>
<stop offset="0.93" stop-color="#FFC377" stop-opacity="0.71"/>
<stop offset="0.95" stop-color="#FFCD7B" stop-opacity="0.49"/>
<stop offset="0.97" stop-color="#FFD57E" stop-opacity="0.33"/>
<stop offset="0.99" stop-color="#FFD980" stop-opacity="0.24"/>
<stop offset="1" stop-color="#FFDB81" stop-opacity="0.2"/>
</radialGradient>
</defs>
</svg>
